<svg version="1.0" xmlns="http://www.w3.org/2000/svg"
     width="305.000000pt" height="305.000000pt" viewBox="0 0 305.000000 305.000000"
     preserveAspectRatio="xMidYMid meet">

    <g transform="translate(0.000000,305.000000) scale(0.100000,-0.100000)"
       fill="#000000" stroke="none">
        <path d="M1300 3005 c-405 -88 -721 -359 -867 -745 -42 -109 -73 -281 -73
-400 0 -270 112 -567 285 -759 79 -86 180 -118 331 -102 103 10 172 42 250
114 131 121 171 275 113 433 -32 84 -96 130 -196 140 -84 9 -169 -15 -308 -87
-103 -53 -114 -61 -79 -57 23 3 88 25 145 48 94 38 110 41 170 37 73 -5 102
-20 140 -76 18 -26 24 -48 24 -90 0 -154 -178 -335 -390 -396 l-60 -18 -75 80
c-118 126 -202 282 -250 465 -34 128 -39 349 -10 487 89 436 425 772 861 861
88 19 127 21 254 17 163 -5 256 -24 387 -78 75 -31 228 -118 228 -130 0 -9
-87 -17 -335 -30 -104 -5 -208 -12 -230 -15 l-40 -6 58 52 c59 54 137 150 137
170 0 6 -15 0 -32 -13 -44 -33 -141 -88 -333 -190 -161 -85 -401 -231 -507
-307 -95 -68 -192 -194 -233 -303 -28 -76 -43 -181 -26 -191 8 -5 -5 -26 -35
-59 -49 -54 -100 -148 -110 -204 -19 -99 60 -196 178 -220 l33 -6 -28 32 c-19
23 -27 44 -27 70 0 52 23 71 87 71 45 0 55 4 85 34 31 31 88 56 130 56 33 0
176 50 200 70 l23 20 -42 -14 c-23 -8 -95 -27 -160 -41 -144 -33 -181 -47
-192 -78 -9 -22 -14 -23 -63 -19 -46 3 -56 1 -80 -22 -22 -20 -28 -34 -28 -67
l0 -42 -24 22 c-30 28 -56 81 -56 113 1 33 40 124 80 186 33 49 60 67 60 39 0
-32 59 -70 145 -92 86 -22 101 -10 17 14 -76 22 -145 107 -125 157 3 8 0 14
-6 14 -17 0 -13 84 6 132 28 70 84 160 132 212 67 71 151 127 300 200 223 108
439 169 591 165 l45 -1 -65 -14 c-191 -42 -345 -86 -411 -118 -46 -23 -63 -34
-44 -31 250 41 311 47 485 48 162 1 196 -2 275 -22 218 -56 381 -143 563 -300
94 -82 95 -80 38 65 -207 525 -776 836 -1316 719z m961 -321 c54 -48 159 -164
159 -176 0 -3 -17 2 -37 12 -63 30 -259 81 -344 90 -44 4 -82 10 -85 13 -3 3
10 10 28 16 18 6 74 29 123 50 50 22 93 40 97 40 4 1 31 -20 59 -45z"/>
        <path d="M1450 2441 c-24 -4 12 -9 110 -14 281 -14 456 -50 615 -126 164 -79
285 -168 391 -290 l64 -75 0 -93 c0 -51 -3 -93 -6 -93 -3 0 -28 19 -54 43 -59
54 -230 140 -330 167 -187 50 -438 64 -619 35 -97 -16 -302 -59 -356 -74 -55
-16 92 -12 206 5 127 19 332 14 429 -12 173 -45 368 -155 495 -279 68 -66 90
-96 129 -174 25 -51 46 -100 46 -110 1 -24 34 43 63 129 43 127 57 218 57 374
l0 144 -82 75 c-197 178 -396 299 -573 348 -71 20 -107 23 -315 25 -129 1
-251 -1 -270 -5z"/>
        <path d="M1520 2148 c-41 -15 -97 -22 -215 -28 -88 -5 -194 -16 -235 -25 -122
-28 -210 -82 -210 -129 0 -19 0 -19 14 -1 15 21 35 19 216 -20 119 -26 170 -4
170 73 0 18 6 34 13 36 6 2 48 10 92 19 93 18 185 50 217 77 29 25 11 24 -62
-2z m-312 -142 c7 -57 -49 -75 -77 -24 -17 30 -9 47 13 29 18 -15 36 -7 36 15
0 27 25 9 28 -20z"/>
        <path d="M1340 1845 c0 -4 80 -45 178 -91 97 -47 204 -99 237 -116 167 -87
337 -233 387 -333 32 -64 58 -177 58 -254 0 -69 -7 -79 -103 -136 l-59 -36
-74 46 c-125 78 -180 154 -330 449 -117 230 -174 278 -371 310 -42 7 -43 -9
-2 -23 103 -36 220 -160 305 -326 122 -235 238 -362 404 -439 l53 -25 -39 -16
c-156 -67 -293 -95 -470 -95 -95 0 -124 3 -124 13 0 7 14 35 32 63 17 27 47
82 66 123 62 130 54 284 -19 362 -33 35 -49 34 -25 -3 46 -72 41 -202 -14
-315 -34 -71 -111 -177 -145 -199 -23 -15 -29 -15 -92 6 -80 25 -188 76 -258
122 -27 18 -84 42 -125 54 l-75 22 45 -40 c108 -98 283 -190 446 -235 93 -26
111 -28 304 -28 193 0 211 2 305 28 195 54 388 169 523 310 l62 65 0 74 c0
146 -47 252 -162 365 -75 75 -95 89 -171 125 -90 43 -209 75 -362 97 -117 18
-296 55 -367 77 -10 3 -18 2 -18 -1z"/>
        <path d="M850 1810 c30 -11 56 -19 58 -20 1 0 -2 9 -8 20 -8 16 -21 20 -58 20
l-47 -1 55 -19z"/>
        <path d="M400 345 l0 -275 35 0 35 0 0 115 0 115 190 0 189 0 3 -112 3 -113
35 0 35 0 0 270 0 270 -35 0 -35 0 -3 -117 -3 -118 -189 0 -190 0 0 120 0 120
-35 0 -35 0 0 -275z"/>
        <path d="M1105 603 c-95 -48 -106 -86 -103 -333 l3 -195 37 -3 37 -3 3 78 3
78 188 3 187 2 0 -80 0 -80 41 0 40 0 -3 218 -3 219 -28 36 c-49 64 -91 77
-241 76 -96 -1 -139 -5 -161 -16z m332 -95 c21 -19 23 -30 23 -115 l0 -93
-187 2 -188 3 -3 89 c-3 80 -1 91 19 112 22 23 28 24 168 24 135 0 146 -1 168
-22z"/>
        <path d="M1610 344 l0 -275 38 3 37 3 3 78 3 77 122 0 122 0 80 -80 c63 -64
85 -80 105 -78 18 2 26 10 28 27 3 18 -10 37 -49 77 l-53 54 42 35 c63 54 82
165 43 250 -20 44 -29 53 -84 84 -35 19 -53 21 -237 21 l-200 0 0 -276z m439
160 c16 -20 21 -41 21 -85 0 -112 -14 -119 -225 -119 l-155 0 0 115 0 115 169
0 170 0 20 -26z"/>
        <path d="M2220 345 l0 -275 35 0 34 0 3 77 3 78 180 5 c204 6 220 11 255 80
14 27 20 59 20 104 0 100 -26 148 -102 187 -33 17 -60 19 -233 19 l-195 0 0
-275z m430 165 c16 -16 20 -33 20 -94 0 -69 -2 -76 -27 -96 -25 -19 -37 -20
-187 -18 l-161 3 -3 113 -3 112 171 0 c157 0 172 -2 190 -20z"/>
    </g>
</svg>
