<?xml version="1.0" encoding="UTF-8"?>
<svg xmlns="http://www.w3.org/2000/svg" xmlns:xlink="http://www.w3.org/1999/xlink" width="50pt" height="50pt" viewBox="0 0 50 50" version="1.1">
<g id="surface1">
<path :fill="logoColor" style=" stroke:none;fill-rule:nonzero;fill-opacity:1;" d="M 21.324219 0.738281 C 14.683594 2.183594 9.496094 6.628906 7.101562 12.960938 C 6.414062 14.746094 5.90625 17.570312 5.90625 19.519531 C 5.90625 23.949219 7.742188 28.820312 10.582031 31.972656 C 11.875 33.382812 13.535156 33.90625 16.011719 33.644531 C 17.699219 33.480469 18.832031 32.957031 20.113281 31.773438 C 22.261719 29.789062 22.917969 27.265625 21.964844 24.671875 C 21.441406 23.292969 20.390625 22.539062 18.75 22.375 C 17.371094 22.226562 15.976562 22.621094 13.699219 23.800781 C 12.007812 24.671875 11.828125 24.804688 12.402344 24.738281 C 12.777344 24.6875 13.84375 24.328125 14.78125 23.949219 C 16.320312 23.328125 16.585938 23.277344 17.570312 23.34375 C 18.765625 23.425781 19.242188 23.671875 19.867188 24.589844 C 20.160156 25.015625 20.257812 25.378906 20.257812 26.066406 C 20.257812 28.59375 17.339844 31.5625 13.863281 32.5625 L 12.878906 32.859375 L 11.648438 31.546875 C 9.710938 29.476562 8.332031 26.917969 7.546875 23.917969 C 6.988281 21.816406 6.90625 18.191406 7.382812 15.929688 C 8.84375 8.777344 14.355469 3.265625 21.507812 1.804688 C 22.949219 1.492188 23.589844 1.460938 25.671875 1.527344 C 28.347656 1.609375 29.871094 1.917969 32.019531 2.804688 C 33.25 3.3125 35.761719 4.742188 35.761719 4.9375 C 35.761719 5.085938 34.335938 5.214844 30.265625 5.429688 C 28.558594 5.511719 26.855469 5.625 26.492188 5.675781 L 25.835938 5.773438 L 26.789062 4.921875 C 27.757812 4.035156 29.035156 2.460938 29.035156 2.132812 C 29.035156 2.035156 28.789062 2.132812 28.511719 2.347656 C 27.789062 2.886719 26.199219 3.789062 23.046875 5.460938 C 20.40625 6.855469 16.46875 9.253906 14.730469 10.5 C 13.171875 11.613281 11.582031 13.679688 10.910156 15.46875 C 10.449219 16.714844 10.203125 18.4375 10.480469 18.601562 C 10.613281 18.683594 10.398438 19.027344 9.90625 19.570312 C 9.105469 20.457031 8.269531 21.996094 8.105469 22.917969 C 7.792969 24.539062 9.089844 26.132812 11.023438 26.527344 L 11.566406 26.625 L 11.105469 26.097656 C 10.792969 25.722656 10.664062 25.378906 10.664062 24.949219 C 10.664062 24.097656 11.039062 23.785156 12.089844 23.785156 C 12.828125 23.785156 12.992188 23.71875 13.484375 23.226562 C 13.992188 22.71875 14.929688 22.308594 15.617188 22.308594 C 16.15625 22.308594 18.503906 21.488281 18.898438 21.160156 L 19.273438 20.832031 L 18.585938 21.0625 C 18.207031 21.195312 17.027344 21.507812 15.960938 21.734375 C 13.597656 22.277344 12.992188 22.507812 12.8125 23.015625 C 12.664062 23.375 12.582031 23.390625 11.777344 23.328125 C 11.023438 23.277344 10.859375 23.308594 10.464844 23.6875 C 10.105469 24.015625 10.007812 24.246094 10.007812 24.785156 L 10.007812 25.476562 L 9.613281 25.113281 C 9.121094 24.65625 8.695312 23.785156 8.695312 23.261719 C 8.710938 22.71875 9.351562 21.226562 10.007812 20.210938 C 10.546875 19.40625 10.992188 19.109375 10.992188 19.570312 C 10.992188 20.09375 11.957031 20.71875 13.371094 21.078125 C 14.78125 21.441406 15.027344 21.242188 13.648438 20.851562 C 12.402344 20.488281 11.269531 19.09375 11.597656 18.273438 C 11.648438 18.144531 11.597656 18.042969 11.5 18.042969 C 11.21875 18.042969 11.285156 16.667969 11.597656 15.878906 C 12.058594 14.730469 12.976562 13.253906 13.761719 12.402344 C 14.863281 11.238281 16.238281 10.316406 18.683594 9.121094 C 22.34375 7.347656 25.886719 6.347656 28.378906 6.414062 L 29.117188 6.429688 L 28.050781 6.660156 C 24.917969 7.347656 22.390625 8.070312 21.308594 8.597656 C 20.554688 8.972656 20.277344 9.152344 20.585938 9.105469 C 24.6875 8.433594 25.6875 8.332031 28.542969 8.316406 C 31.199219 8.300781 31.757812 8.351562 33.054688 8.679688 C 36.628906 9.597656 39.304688 11.023438 42.289062 13.597656 C 43.832031 14.945312 43.847656 14.910156 42.914062 12.53125 C 39.519531 3.921875 30.183594 -1.179688 21.324219 0.738281 Z M 37.089844 6.003906 C 37.976562 6.792969 39.699219 8.695312 39.699219 8.890625 C 39.699219 8.941406 39.417969 8.859375 39.089844 8.695312 C 38.058594 8.203125 34.84375 7.367188 33.449219 7.21875 C 32.726562 7.152344 32.101562 7.054688 32.054688 7.003906 C 32.003906 6.957031 32.21875 6.839844 32.511719 6.742188 C 32.808594 6.644531 33.726562 6.265625 34.53125 5.921875 C 35.351562 5.5625 36.054688 5.265625 36.121094 5.265625 C 36.1875 5.25 36.628906 5.59375 37.089844 6.003906 Z M 37.089844 6.003906 "/>
<path :fill="logoColor" style=" stroke:none;fill-rule:nonzero;fill-opacity:1;" d="M 23.785156 9.988281 C 23.390625 10.054688 23.984375 10.136719 25.589844 10.21875 C 30.199219 10.449219 33.070312 11.039062 35.679688 12.285156 C 38.371094 13.582031 40.355469 15.042969 42.09375 17.042969 L 43.144531 18.273438 L 43.144531 19.800781 C 43.144531 20.636719 43.09375 21.324219 43.042969 21.324219 C 42.996094 21.324219 42.585938 21.015625 42.160156 20.621094 C 41.191406 19.734375 38.386719 18.324219 36.746094 17.878906 C 33.679688 17.058594 29.558594 16.832031 26.589844 17.304688 C 25 17.570312 21.636719 18.273438 20.75 18.519531 C 19.847656 18.78125 22.261719 18.71875 24.128906 18.4375 C 26.214844 18.125 29.578125 18.207031 31.167969 18.636719 C 34.007812 19.375 37.203125 21.179688 39.289062 23.210938 C 40.402344 24.292969 40.765625 24.785156 41.402344 26.066406 C 41.8125 26.902344 42.160156 27.707031 42.160156 27.871094 C 42.175781 28.265625 42.714844 27.164062 43.191406 25.753906 C 43.898438 23.671875 44.128906 22.179688 44.128906 19.621094 L 44.128906 17.257812 L 42.78125 16.027344 C 39.550781 13.105469 36.285156 11.121094 33.382812 10.316406 C 32.21875 9.988281 31.628906 9.941406 28.214844 9.90625 C 26.097656 9.890625 24.097656 9.925781 23.785156 9.988281 Z M 23.785156 9.988281 "/>
<path :fill="logoColor" style=" stroke:none;fill-rule:nonzero;fill-opacity:1;" d="M 24.933594 14.796875 C 24.261719 15.042969 23.34375 15.15625 21.40625 15.257812 C 19.964844 15.339844 18.226562 15.519531 17.550781 15.664062 C 15.550781 16.125 14.109375 17.011719 14.109375 17.78125 C 14.109375 18.09375 14.109375 18.09375 14.335938 17.796875 C 14.582031 17.453125 14.910156 17.488281 17.878906 18.125 C 19.832031 18.554688 20.667969 18.191406 20.667969 16.929688 C 20.667969 16.632812 20.769531 16.371094 20.882812 16.339844 C 20.980469 16.304688 21.671875 16.175781 22.390625 16.027344 C 23.917969 15.730469 25.425781 15.207031 25.953125 14.765625 C 26.425781 14.355469 26.132812 14.371094 24.933594 14.796875 Z M 19.816406 17.125 C 19.929688 18.0625 19.011719 18.355469 18.554688 17.519531 C 18.273438 17.027344 18.40625 16.75 18.765625 17.042969 C 19.0625 17.289062 19.355469 17.160156 19.355469 16.796875 C 19.355469 16.355469 19.765625 16.648438 19.816406 17.125 Z M 19.816406 17.125 "/>
<path :fill="logoColor" style=" stroke:none;fill-rule:nonzero;fill-opacity:1;" d="M 21.980469 19.765625 C 21.980469 19.832031 23.292969 20.503906 24.902344 21.261719 C 26.492188 22.03125 28.246094 22.882812 28.789062 23.164062 C 31.527344 24.589844 34.316406 26.984375 35.136719 28.625 C 35.664062 29.675781 36.089844 31.527344 36.089844 32.792969 C 36.089844 33.925781 35.972656 34.089844 34.398438 35.023438 L 33.433594 35.613281 L 32.21875 34.859375 C 30.167969 33.578125 29.265625 32.332031 26.804688 27.492188 C 24.886719 23.71875 23.949219 22.933594 20.71875 22.40625 C 20.03125 22.292969 20.011719 22.554688 20.6875 22.785156 C 22.375 23.375 24.292969 25.410156 25.6875 28.132812 C 27.691406 31.988281 29.59375 34.070312 32.316406 35.335938 L 33.1875 35.746094 L 32.546875 36.007812 C 29.988281 37.105469 27.738281 37.566406 24.835938 37.566406 C 23.277344 37.566406 22.800781 37.515625 22.800781 37.351562 C 22.800781 37.238281 23.03125 36.777344 23.328125 36.320312 C 23.605469 35.875 24.097656 34.972656 24.410156 34.300781 C 25.425781 32.167969 25.296875 29.640625 24.097656 28.363281 C 23.554688 27.789062 23.292969 27.804688 23.6875 28.410156 C 24.441406 29.59375 24.359375 31.726562 23.457031 33.578125 C 22.898438 34.742188 21.636719 36.484375 21.078125 36.84375 C 20.703125 37.089844 20.605469 37.089844 19.570312 36.746094 C 18.257812 36.335938 16.484375 35.5 15.339844 34.742188 C 14.894531 34.449219 13.960938 34.054688 13.289062 33.859375 L 12.058594 33.496094 L 12.796875 34.152344 C 14.566406 35.761719 17.4375 37.269531 20.113281 38.007812 C 21.636719 38.433594 21.933594 38.46875 25.097656 38.46875 C 28.265625 38.46875 28.558594 38.433594 30.101562 38.007812 C 33.300781 37.121094 36.464844 35.234375 38.679688 32.921875 L 39.699219 31.855469 L 39.699219 30.644531 C 39.699219 28.246094 38.925781 26.507812 37.039062 24.65625 C 35.808594 23.425781 35.480469 23.195312 34.234375 22.605469 C 32.757812 21.898438 30.808594 21.375 28.296875 21.015625 C 26.378906 20.71875 23.441406 20.113281 22.277344 19.75 C 22.113281 19.703125 21.980469 19.71875 21.980469 19.765625 Z M 21.980469 19.765625 "/>
<path :fill="logoColor" style=" stroke:none;fill-rule:nonzero;fill-opacity:1;" d="M 13.945312 20.339844 C 14.4375 20.523438 14.863281 20.652344 14.894531 20.667969 C 14.910156 20.667969 14.863281 20.523438 14.765625 20.339844 C 14.632812 20.078125 14.417969 20.011719 13.8125 20.011719 L 13.042969 20.03125 Z M 13.945312 20.339844 "/>
<path :fill="logoColor" style=" stroke:none;fill-rule:nonzero;fill-opacity:1;" d="M 6.5625 44.375 L 6.5625 48.882812 L 7.710938 48.882812 L 7.710938 45.113281 L 13.925781 45.113281 L 13.976562 46.949219 L 14.027344 48.800781 L 15.175781 48.800781 L 15.175781 39.945312 L 14.027344 39.945312 L 13.976562 41.863281 L 13.925781 43.800781 L 7.710938 43.800781 L 7.710938 39.863281 L 6.5625 39.863281 Z M 6.5625 44.375 "/>
<path :fill="logoColor" style=" stroke:none;fill-rule:nonzero;fill-opacity:1;" d="M 18.125 40.140625 C 16.566406 40.929688 16.386719 41.550781 16.4375 45.605469 L 16.484375 48.800781 L 17.09375 48.851562 L 17.699219 48.902344 L 17.75 47.621094 L 17.796875 46.34375 L 20.882812 46.292969 L 23.949219 46.261719 L 23.949219 48.882812 L 25.277344 48.882812 L 25.230469 45.308594 L 25.179688 41.714844 L 24.722656 41.125 C 23.917969 40.074219 23.226562 39.863281 20.769531 39.878906 C 19.191406 39.894531 18.488281 39.960938 18.125 40.140625 Z M 23.574219 41.699219 C 23.917969 42.011719 23.949219 42.191406 23.949219 43.585938 L 23.949219 45.113281 L 20.882812 45.078125 L 17.796875 45.03125 L 17.75 43.570312 C 17.699219 42.257812 17.734375 42.078125 18.0625 41.730469 C 18.421875 41.355469 18.519531 41.339844 20.816406 41.339844 C 23.03125 41.339844 23.210938 41.355469 23.574219 41.699219 Z M 23.574219 41.699219 "/>
<path :fill="logoColor" style=" stroke:none;fill-rule:nonzero;fill-opacity:1;" d="M 26.410156 44.390625 L 26.410156 48.902344 L 27.035156 48.851562 L 27.640625 48.800781 L 27.691406 47.523438 L 27.738281 46.261719 L 31.742188 46.261719 L 33.054688 47.570312 C 34.089844 48.621094 34.449219 48.882812 34.777344 48.851562 C 35.070312 48.820312 35.203125 48.6875 35.234375 48.410156 C 35.285156 48.113281 35.070312 47.800781 34.433594 47.144531 L 33.5625 46.261719 L 34.253906 45.6875 C 35.285156 44.800781 35.597656 42.980469 34.957031 41.585938 C 34.628906 40.863281 34.480469 40.714844 33.578125 40.207031 C 33.003906 39.894531 32.710938 39.863281 29.691406 39.863281 L 26.410156 39.863281 Z M 33.613281 41.765625 C 33.875 42.09375 33.957031 42.4375 33.957031 43.160156 C 33.957031 44.996094 33.726562 45.113281 30.265625 45.113281 L 27.722656 45.113281 L 27.722656 41.339844 L 33.285156 41.339844 Z M 33.613281 41.765625 "/>
<path :fill="logoColor" style=" stroke:none;fill-rule:nonzero;fill-opacity:1;" d="M 36.417969 44.375 L 36.417969 48.882812 L 37.550781 48.882812 L 37.597656 47.621094 L 37.648438 46.34375 L 40.601562 46.261719 C 43.945312 46.160156 44.210938 46.078125 44.785156 44.949219 C 45.011719 44.503906 45.113281 43.980469 45.113281 43.242188 C 45.113281 41.601562 44.683594 40.8125 43.4375 40.175781 C 42.898438 39.894531 42.453125 39.863281 39.617188 39.863281 L 36.417969 39.863281 Z M 43.472656 41.667969 C 43.734375 41.929688 43.800781 42.207031 43.800781 43.207031 C 43.800781 44.339844 43.765625 44.457031 43.355469 44.785156 C 42.945312 45.09375 42.75 45.113281 40.289062 45.078125 L 37.648438 45.03125 L 37.597656 43.175781 L 37.550781 41.339844 L 40.355469 41.339844 C 42.929688 41.339844 43.175781 41.371094 43.472656 41.667969 Z M 43.472656 41.667969 "/>
</g>
</svg>
