<svg version="1.0" xmlns="http://www.w3.org/2000/svg"
     width="305.000000pt" height="305.000000pt" viewBox="0 0 305.000000 305.000000"
     preserveAspectRatio="xMidYMid meet">

    <g transform="translate(0.000000,305.000000) scale(0.100000,-0.100000)"
       fill="#000000" stroke="none">
        <path d="M0 1525 l0 -1525 1525 0 1525 0 0 1525 0 1525 -1525 0 -1525 0 0
-1525z m1733 1485 c118 -24 226 -59 310 -101 263 -133 467 -355 573 -623 57
-145 56 -147 -38 -65 -182 157 -345 244 -563 300 -79 20 -113 23 -275 22 -174
-1 -235 -7 -485 -48 -19 -3 -2 8 44 31 66 32 220 76 411 118 l65 14 -45 1
c-152 4 -368 -57 -591 -165 -149 -73 -233 -129 -300 -200 -48 -52 -104 -142
-132 -212 -19 -48 -23 -132 -6 -132 6 0 9 -6 6 -14 -20 -50 49 -135 125 -157
84 -24 69 -36 -17 -14 -86 22 -145 60 -145 92 0 28 -27 10 -60 -39 -40 -62
-79 -153 -80 -186 0 -32 26 -85 56 -113 l24 -22 0 42 c0 33 6 47 28 67 24 23
34 25 80 22 49 -4 54 -3 63 19 11 31 48 45 192 78 65 14 137 33 160 41 l42 14
-23 -20 c-24 -20 -167 -70 -200 -70 -42 0 -99 -25 -130 -56 -30 -30 -40 -34
-85 -34 -64 0 -87 -19 -87 -71 0 -26 8 -47 27 -70 l28 -32 -33 6 c-118 24
-197 121 -178 220 10 56 61 150 110 204 30 33 43 54 35 59 -17 10 -2 115 26
191 41 109 138 235 233 303 106 76 346 222 507 307 192 102 289 157 333 190
17 13 32 19 32 13 0 -20 -78 -116 -137 -170 l-58 -52 40 6 c22 3 126 10 230
15 248 13 335 21 335 30 0 12 -153 99 -228 130 -131 54 -224 73 -387 78 -127
4 -166 2 -254 -17 -436 -89 -772 -425 -861 -861 -29 -138 -24 -359 10 -487 48
-183 132 -339 250 -465 l75 -80 60 18 c212 61 390 242 390 396 0 42 -6 64 -24
90 -38 56 -67 71 -140 76 -60 4 -76 1 -170 -37 -57 -23 -122 -45 -145 -48 -35
-4 -24 4 79 57 139 72 224 96 308 87 100 -10 164 -56 196 -140 58 -158 18
-312 -113 -433 -78 -72 -147 -104 -250 -114 -151 -16 -252 16 -331 102 -173
192 -285 489 -285 759 0 119 31 291 73 400 174 460 605 764 1087 769 79 0 146
-5 213 -19z m302 -589 c177 -49 376 -170 573 -348 l82 -75 0 -144 c0 -156 -14
-247 -57 -374 -29 -86 -62 -153 -63 -129 0 10 -21 59 -46 110 -39 78 -61 108
-129 174 -127 124 -322 234 -495 279 -97 26 -302 31 -429 12 -114 -17 -261
-21 -206 -5 54 15 259 58 356 74 181 29 432 15 619 -35 100 -27 271 -113 330
-167 26 -24 51 -43 54 -43 3 0 6 42 6 93 l0 93 -64 75 c-106 122 -227 211
-391 290 -159 76 -334 112 -615 126 -214 11 -122 22 160 19 208 -2 244 -5 315
-25z m-453 -271 c-32 -27 -124 -59 -217 -77 -44 -9 -86 -17 -92 -19 -7 -2 -13
-18 -13 -36 0 -77 -51 -99 -170 -73 -181 39 -201 41 -216 20 -14 -18 -14 -18
-14 1 0 47 88 101 210 129 41 9 147 20 235 25 118 6 174 13 215 28 73 26 91
27 62 2z m-102 -335 c57 -13 168 -34 245 -46 153 -22 272 -54 362 -97 76 -36
96 -50 171 -125 115 -113 162 -219 162 -365 l0 -74 -62 -65 c-135 -141 -328
-256 -523 -310 -94 -26 -112 -28 -305 -28 -193 0 -211 2 -304 28 -163 45 -338
137 -446 235 l-45 40 75 -22 c41 -12 98 -36 125 -54 70 -46 178 -97 258 -122
63 -21 69 -21 92 -6 34 22 111 128 145 199 55 113 60 243 14 315 -24 37 -8 38
25 3 73 -78 81 -232 19 -362 -19 -41 -49 -96 -66 -123 -18 -28 -32 -56 -32
-63 0 -10 29 -13 124 -13 177 0 314 28 470 95 l39 16 -53 25 c-166 77 -282
204 -404 439 -85 166 -202 290 -305 326 -41 14 -40 30 2 23 126 -21 194 -52
254 -117 24 -26 73 -107 117 -193 150 -295 205 -371 330 -449 l74 -46 59 36
c96 57 103 67 103 136 0 77 -26 190 -58 254 -50 100 -220 246 -387 333 -33 17
-140 69 -237 116 -98 46 -178 87 -178 91 0 3 8 4 18 1 9 -3 64 -17 122 -31z
m-580 -5 c6 -11 9 -20 8 -20 -2 1 -28 9 -58 20 l-55 19 47 1 c37 0 50 -4 58
-20z m-430 -1310 l0 -120 190 0 189 0 3 118 3 117 35 0 35 0 0 -270 0 -270
-35 0 -35 0 -3 113 -3 112 -189 0 -190 0 0 -115 0 -115 -35 0 -35 0 0 275 0
275 35 0 35 0 0 -120z m968 100 c22 -11 54 -36 69 -57 l28 -36 3 -219 3 -218
-40 0 -41 0 0 80 0 80 -187 -2 -188 -3 -3 -78 -3 -78 -37 3 -37 3 -3 195 c-3
211 5 255 51 297 48 44 77 51 213 52 111 1 136 -2 172 -19z m609 -1 c55 -31
64 -40 84 -84 39 -85 20 -196 -43 -250 l-42 -35 53 -54 c39 -40 52 -59 49 -77
-2 -17 -10 -25 -28 -27 -20 -2 -42 14 -105 78 l-80 80 -122 0 -122 0 -3 -77
-3 -78 -37 -3 -38 -3 0 275 0 276 200 0 c184 0 202 -2 237 -21z m601 2 c76
-39 102 -87 102 -187 0 -45 -6 -77 -20 -104 -35 -69 -51 -74 -255 -80 l-180
-5 -3 -78 -3 -77 -34 0 -35 0 0 275 0 275 195 0 c173 0 200 -2 233 -19z"/>
        <path d="M2105 2689 c-49 -21 -105 -44 -123 -50 -18 -6 -31 -13 -28 -16 3 -3
41 -9 85 -13 85 -9 281 -60 344 -90 20 -10 37 -15 37 -12 0 21 -199 223 -218
221 -4 0 -47 -18 -97 -40z"/>
        <path d="M1180 2026 c0 -22 -18 -30 -36 -15 -22 18 -30 1 -13 -29 28 -51 84
-33 77 24 -3 29 -28 47 -28 20z"/>
        <path d="M1101 506 c-20 -21 -22 -32 -19 -112 l3 -89 188 -3 187 -2 0 93 c0
85 -2 96 -23 115 -22 21 -33 22 -168 22 -140 0 -146 -1 -168 -24z"/>
        <path d="M1690 415 l0 -115 155 0 c211 0 225 7 225 119 0 44 -5 65 -21 85
l-20 26 -170 0 -169 0 0 -115z"/>
        <path d="M2292 418 l3 -113 161 -3 c150 -2 162 -1 187 18 25 20 27 27 27 96 0
114 0 114 -210 114 l-171 0 3 -112z"/>
    </g>
</svg>
