<svg width="50" height="50" viewbox="0 0 50 50" fill="none" xmlns="http://www.w3.org/2000/svg">
    <path d="M34.75 6.31328L18.0812 0.0632813C17.8312 -0.0210937 17.5812 -0.0210937 17.3312 0.0632813L0.6625 6.31328C0.26875 6.46016 0 6.85391 0 7.29141V20.6883C0 39.6883 17.3125 43.6883 17.4812 43.7289C17.5625 43.7508 17.625 43.7508 17.7094 43.7508C17.7937 43.7508 17.8562 43.7508 17.9375 43.7289C17.9781 43.7289 18.7906 43.5414 20.0406 43.0633C19.2094 41.0227 18.75 38.7914 18.75 36.4602C18.75 27.0445 26.125 19.3133 35.4187 18.7727V7.29453C35.4156 6.8539 35.1469 6.46016 34.75 6.31328Z" fill="#E23E34"/>
    <path d="M36.4593 22.9163C28.9936 22.9163 22.9155 28.9913 22.9155 36.4569C22.9155 43.9225 28.9905 50.0006 36.4593 50.0006C43.928 50.0006 49.9999 43.9256 49.9999 36.46C49.9999 28.9944 43.9249 22.9163 36.4593 22.9163ZM36.4593 27.085C38.2905 27.085 39.9874 27.6319 41.4311 28.5444L28.5405 41.4319C27.6312 39.9881 27.0843 38.2913 27.0843 36.46C27.0843 31.2881 31.2874 27.085 36.4593 27.085ZM36.4593 45.835C34.628 45.835 32.9312 45.2881 31.4874 44.3756L44.378 31.4881C45.2874 32.9319 45.8343 34.6288 45.8343 36.46C45.8343 41.6288 41.628 45.835 36.4593 45.835Z" fill="#E23E34"/>
</svg>
