<svg width="50" height="50" viewbox="0 0 50 50" fill="none" xmlns="http://www.w3.org/2000/svg">
    <path d="M25 0C11.216 0 0 11.216 0 25C0 38.784 11.216 50 25 50C38.784 50 50 38.784 50 25C50 11.216 38.784 0 25 0ZM34.2064 31.2622C35.0189 32.0747 35.0189 33.3939 34.2064 34.2094C33.7997 34.6153 33.2657 34.819 32.7347 34.819C32.2029 34.819 31.6689 34.6153 31.2622 34.2094L25 27.9472L18.7378 34.2094C18.3311 34.6153 17.7971 34.819 17.2653 34.819C16.7313 34.819 16.2003 34.6153 15.7936 34.2094C14.9811 33.3969 14.9811 32.0778 15.7936 31.2622L22.0528 25L15.7906 18.7378C14.978 17.9253 14.978 16.6061 15.7906 15.7906C16.6031 14.975 17.9222 14.978 18.7378 15.7906L25 22.0528L31.2622 15.7906C32.0747 14.978 33.3939 14.978 34.2094 15.7906C35.025 16.6031 35.022 17.9222 34.2094 18.7378L27.9472 25L34.2064 31.2622Z" fill="#E23E34"/>
</svg>
